<?xml version="1.0" standalone="no"?>
<!DOCTYPE svg PUBLIC "-//W3C//DTD SVG 20010904//EN"
 "http://www.w3.org/TR/2001/REC-SVG-20010904/DTD/svg10.dtd">
<svg version="1.0" xmlns="http://www.w3.org/2000/svg"
 width="288.000000pt" height="288.000000pt" viewBox="0 0 288.000000 288.000000"
 preserveAspectRatio="xMidYMid meet">
<metadata>
Created by potrace 1.11, written by Peter Selinger 2001-2013
</metadata>
<g transform="translate(0.000000,288.000000) scale(0.100000,-0.100000)"
fill="#000000" stroke="none">
<path d="M1235 2865 c-109 -17 -205 -42 -297 -77 -43 -16 -80 -29 -84 -28 -4
1 -10 -2 -13 -7 -3 -5 -24 -17 -46 -27 -38 -18 -149 -82 -170 -98 -5 -5 -40
-31 -78 -59 -37 -28 -67 -55 -67 -60 0 -5 -4 -9 -9 -9 -6 0 -34 -26 -63 -57
-29 -31 -61 -65 -70 -75 -10 -10 -18 -21 -18 -24 0 -3 -7 -12 -15 -21 -61 -61
-209 -334 -232 -428 -1 -5 -9 -35 -18 -65 -17 -59 -19 -65 -39 -180 -17 -95
-13 -366 7 -470 100 -506 449 -920 924 -1093 82 -30 219 -63 313 -76 65 -9
337 -7 397 3 74 12 213 50 285 78 43 16 80 29 84 28 4 -1 10 2 13 7 3 5 24 17
46 27 41 19 156 85 165 95 3 3 27 22 55 41 27 19 71 55 97 81 26 26 48 45 48
43 0 -3 27 26 60 63 170 191 286 421 342 680 28 133 32 376 8 518 -76 436
-330 800 -707 1016 -136 78 -290 132 -476 170 -78 16 -350 19 -442 4z"/>
</g>
</svg>
